<svg xmlns="http://www.w3.org/2000/svg" width="32" height="31" viewBox="0 0 32 31" fill="none"><path d="M19.5 20.5l2.25 2.25a2.476 2.476 0 010 3.5M1 13V1h10.1c.3 0 .601.02.9.058M3.75 15.25l-.5.5a2.475 2.475 0 003.5 3.5l.5-.5a2.475 2.475 0 00-3.5-3.5z" stroke="#212121" stroke-width="1.5" stroke-linecap="round" stroke-linejoin="round"/><path d="M7.388 18.613l-.775.775a2.475 2.475 0 003.5 3.5l.776-.775a2.475 2.475 0 10-3.5-3.5z" stroke="#212121" stroke-width="1.5" stroke-linecap="round" stroke-linejoin="round"/><path d="M10.613 22.385l-.5.5a2.475 2.475 0 103.5 3.5l.5-.5a2.475 2.475 0 00-3.5-3.5z" stroke="#212121" stroke-width="1.5" stroke-linecap="round" stroke-linejoin="round"/><path d="M14.152 25.847l-.52.52a2.121 2.121 0 000 3h.001a2.12 2.12 0 003 0l.52-.52a2.121 2.121 0 000-3h-.001a2.121 2.121 0 00-3 0zM22.998 17l3.025 3.025a2.475 2.475 0 11-3.5 3.5" stroke="#212121" stroke-width="1.5" stroke-linecap="round" stroke-linejoin="round"/><path d="M25.75 19.75a2.476 2.476 0 003.5-3.5L20 7" stroke="#212121" stroke-width="1.5" stroke-linecap="round" stroke-linejoin="round"/><path d="M20 7l-6.9 5.173a2.232 2.232 0 01-3.54-1.427 2.23 2.23 0 01.625-1.934L15.95 3.05A7 7 0 0120.9 1H31v12" stroke="#212121" stroke-width="1.5" stroke-linecap="round" stroke-linejoin="round"/></svg>