<svg xmlns="http://www.w3.org/2000/svg" width="32" height="32" viewBox="0 0 32 32" fill="none"><g clip-path="url(#clip0_3130_9192)" stroke="#212121" stroke-width="1.5" stroke-linecap="round" stroke-linejoin="round"><path d="M12.998 29.678A14.02 14.02 0 012.32 19m27.358 0A14.02 14.02 0 0119 29.678m0-27.356A14.02 14.02 0 0129.678 13M2.32 13A14.02 14.02 0 0112.998 2.322M13 9.674V1h6v8.674M22.324 13h8.674v6h-8.674M19 22.326V31h-6v-8.674M9.674 19H1v-6h8.674"/><path d="M16 23a7 7 0 100-14 7 7 0 000 14z"/></g><defs><clipPath id="clip0_3130_9192"><path fill="#fff" d="M0 0h32v32H0z"/></clipPath></defs></svg>